<!DOCTYPE svg PUBLIC "-//W3C//DTD SVG 1.1//EN" "http://www.w3.org/Graphics/SVG/1.1/DTD/svg11.dtd">
<!-- Uploaded to: SVG Repo, www.svgrepo.com, Transformed by: SVG Repo Mixer Tools -->
<svg width="800px" height="800px" viewBox="0 0 400 400" fill="none" xmlns="http://www.w3.org/2000/svg">
<g id="SVGRepo_bgCarrier" stroke-width="0"/>
<g id="SVGRepo_tracerCarrier" stroke-linecap="round" stroke-linejoin="round"/>
<g id="SVGRepo_iconCarrier"> <path d="M137.879 45.9585C145.494 38.6542 157.197 34.7824 167.87 38.3367C233.638 60.2498 140.42 142.997 127.202 76.9512C124.001 60.9547 127.553 53.942 139.91 45.4492" stroke="#ffffff" stroke-opacity="0.9" stroke-width="16" stroke-linecap="round" stroke-linejoin="round"/> <path d="M131.187 132.592C139.525 206.201 128.767 295.359 124.024 359.412" stroke="#ffffff" stroke-opacity="0.9" stroke-width="16" stroke-linecap="round" stroke-linejoin="round"/> <path d="M183.738 130.208C178.89 204.039 176.198 285.097 181.349 354.635" stroke="#ffffff" stroke-opacity="0.9" stroke-width="16" stroke-linecap="round" stroke-linejoin="round"/> <path d="M186.462 127.857C219.882 132.122 261.462 131.49 291.462 114.058" stroke="#ffffff" stroke-opacity="0.9" stroke-width="16" stroke-linecap="round" stroke-linejoin="round"/> <path d="M283.462 109.963C287.572 106.791 289.154 112.878 291.462 114.058" stroke="#ffffff" stroke-opacity="0.9" stroke-width="16" stroke-linecap="round" stroke-linejoin="round"/> <path d="M282.758 91.9623C281.735 102.18 280.538 112.385 279.611 122.612" stroke="#ffffff" stroke-opacity="0.9" stroke-width="16" stroke-linecap="round" stroke-linejoin="round"/> <path d="M130.019 131.08C111.157 165.417 97.5759 191.451 118.68 225.988" stroke="#ffffff" stroke-opacity="0.9" stroke-width="16" stroke-linecap="round" stroke-linejoin="round"/> <path d="M126.09 362.205C129.156 364.252 132.412 362.205 133.253 362.205" stroke="#ffffff" stroke-opacity="0.9" stroke-width="16" stroke-linecap="round" stroke-linejoin="round"/> <path d="M182.46 357.869C185.582 361.433 191.57 358.88 193.205 359.062" stroke="#ffffff" stroke-opacity="0.9" stroke-width="16" stroke-linecap="round" stroke-linejoin="round"/> </g>
</svg>